<svg xmlns="http://www.w3.org/2000/svg" xmlns:xlink="http://www.w3.org/1999/xlink" width="500" height="500" viewBox="0 0 500 500">
  <defs>
    <style>
      .icon { opacity: 0.15; }
    </style>
  </defs>
  
  <!-- Row 1 -->
  <image class="icon" x="10" y="10" width="60" height="60" xlink:href="/icons/pizza1.png"/>
  <image class="icon" x="90" y="25" width="50" height="50" xlink:href="/icons/taco.png"/>
  <image class="icon" x="160" y="15" width="45" height="45" xlink:href="/icons/chili1.png"/>
  <image class="icon" x="225" y="20" width="55" height="55" xlink:href="/icons/fries.png"/>
  <image class="icon" x="300" y="10" width="50" height="50" xlink:href="/icons/soda.png"/>
  <image class="icon" x="370" y="25" width="55" height="55" xlink:href="/icons/sandwich.png"/>
  <image class="icon" x="440" y="15" width="50" height="50" xlink:href="/icons/mushroom.png"/>
  
  <!-- Row 2 -->
  <image class="icon" x="40" y="90" width="50" height="50" xlink:href="/icons/tomato.png"/>
  <image class="icon" x="115" y="100" width="55" height="55" xlink:href="/icons/crepe.png"/>
  <image class="icon" x="190" y="85" width="50" height="50" xlink:href="/icons/onion.png"/>
  <image class="icon" x="260" y="95" width="60" height="60" xlink:href="/icons/pizza2.png"/>
  <image class="icon" x="340" y="90" width="45" height="45" xlink:href="/icons/sauce.png"/>
  <image class="icon" x="410" y="100" width="50" height="50" xlink:href="/icons/chef.png"/>
  <image class="icon" x="0" y="105" width="40" height="40" xlink:href="/icons/chili2.png"/>
  
  <!-- Row 3 -->
  <image class="icon" x="20" y="170" width="55" height="55" xlink:href="/icons/food.png"/>
  <image class="icon" x="100" y="180" width="50" height="50" xlink:href="/icons/pizza1.png"/>
  <image class="icon" x="170" y="165" width="50" height="50" xlink:href="/icons/soda.png"/>
  <image class="icon" x="240" y="175" width="55" height="55" xlink:href="/icons/taco.png"/>
  <image class="icon" x="315" y="165" width="50" height="50" xlink:href="/icons/mushroom.png"/>
  <image class="icon" x="385" y="180" width="45" height="45" xlink:href="/icons/chili1.png"/>
  <image class="icon" x="450" y="170" width="50" height="50" xlink:href="/icons/tomato.png"/>
  
  <!-- Row 4 -->
  <image class="icon" x="55" y="250" width="55" height="55" xlink:href="/icons/fries.png"/>
  <image class="icon" x="130" y="260" width="50" height="50" xlink:href="/icons/sandwich.png"/>
  <image class="icon" x="200" y="245" width="55" height="55" xlink:href="/icons/crepe.png"/>
  <image class="icon" x="275" y="255" width="50" height="50" xlink:href="/icons/onion.png"/>
  <image class="icon" x="345" y="245" width="55" height="55" xlink:href="/icons/pizza2.png"/>
  <image class="icon" x="420" y="260" width="45" height="45" xlink:href="/icons/sauce.png"/>
  <image class="icon" x="0" y="255" width="50" height="50" xlink:href="/icons/chef.png"/>
  
  <!-- Row 5 -->
  <image class="icon" x="25" y="330" width="50" height="50" xlink:href="/icons/chili2.png"/>
  <image class="icon" x="95" y="340" width="55" height="55" xlink:href="/icons/food.png"/>
  <image class="icon" x="170" y="325" width="50" height="50" xlink:href="/icons/taco.png"/>
  <image class="icon" x="240" y="335" width="55" height="55" xlink:href="/icons/pizza1.png"/>
  <image class="icon" x="315" y="330" width="50" height="50" xlink:href="/icons/soda.png"/>
  <image class="icon" x="385" y="340" width="50" height="50" xlink:href="/icons/mushroom.png"/>
  <image class="icon" x="455" y="330" width="45" height="45" xlink:href="/icons/chili1.png"/>
  
  <!-- Row 6 -->
  <image class="icon" x="15" y="410" width="55" height="55" xlink:href="/icons/sandwich.png"/>
  <image class="icon" x="90" y="420" width="50" height="50" xlink:href="/icons/tomato.png"/>
  <image class="icon" x="160" y="405" width="55" height="55" xlink:href="/icons/fries.png"/>
  <image class="icon" x="235" y="415" width="50" height="50" xlink:href="/icons/onion.png"/>
  <image class="icon" x="305" y="410" width="55" height="55" xlink:href="/icons/crepe.png"/>
  <image class="icon" x="380" y="420" width="50" height="50" xlink:href="/icons/pizza2.png"/>
  <image class="icon" x="450" y="410" width="45" height="45" xlink:href="/icons/sauce.png"/>
</svg>
