<svg xmlns="http://www.w3.org/2000/svg" width="400" height="400" viewBox="0 0 400 400">
  <defs>
    <style>
      .food { fill: none; stroke: #1a1a1a; stroke-width: 2.5; stroke-linecap: round; stroke-linejoin: round; }
      .accent { fill: none; stroke: #ea580c; stroke-width: 2; }
    </style>
  </defs>
  
  <!-- ROW 1 -->
  <!-- Pizza Slice 1 -->
  <g transform="translate(10, 10)">
    <path class="food" d="M5,60 L30,5 L55,60 Q30,55 5,60"/>
    <circle class="food" cx="20" cy="35" r="5"/>
    <circle class="food" cx="35" cy="40" r="4"/>
    <circle class="food" cx="28" cy="25" r="4"/>
    <path class="accent" d="M8,55 Q30,50 52,55"/>
  </g>
  
  <!-- Hot Dog -->
  <g transform="translate(75, 20)">
    <ellipse class="food" cx="30" cy="25" rx="28" ry="12"/>
    <path class="food" d="M5,20 Q30,10 55,20"/>
    <path class="accent" d="M10,25 Q20,20 30,25 Q40,30 50,25"/>
  </g>
  
  <!-- Fries -->
  <g transform="translate(150, 5)">
    <path class="food" d="M10,50 L15,15 L20,50"/>
    <path class="food" d="M18,50 L25,10 L32,50"/>
    <path class="food" d="M30,50 L35,18 L40,50"/>
    <path class="food" d="M38,50 L42,12 L48,50"/>
    <path class="food" d="M5,50 Q25,45 50,50 L45,65 L10,65 Z"/>
  </g>
  
  <!-- Soda Cup -->
  <g transform="translate(215, 10)">
    <path class="food" d="M10,55 L15,10 L45,10 L50,55 Z"/>
    <ellipse class="food" cx="30" cy="10" rx="17" ry="5"/>
    <line class="food" x1="30" y1="5" x2="30" y2="-10"/>
    <circle class="food" cx="30" cy="-12" r="4"/>
    <path class="accent" d="M20,30 Q30,25 40,30"/>
  </g>
  
  <!-- Pretzel -->
  <g transform="translate(280, 15)">
    <path class="food" d="M30,45 Q10,35 15,20 Q20,5 30,15 Q40,5 45,20 Q50,35 30,45"/>
    <path class="food" d="M22,25 Q30,30 38,25"/>
  </g>
  
  <!-- Pizza Slice 2 -->
  <g transform="translate(340, 5) rotate(15)">
    <path class="food" d="M5,55 L27,5 L50,55 Q27,50 5,55"/>
    <circle class="food" cx="18" cy="32" r="4"/>
    <circle class="food" cx="32" cy="38" r="5"/>
    <circle class="food" cx="25" cy="22" r="3"/>
  </g>
  
  <!-- ROW 2 -->
  <!-- Ice Cream -->
  <g transform="translate(20, 90)">
    <path class="food" d="M20,70 L30,30 L40,70"/>
    <circle class="food" cx="30" cy="25" r="15"/>
    <path class="food" d="M20,20 Q30,5 40,20"/>
    <circle class="accent" cx="25" cy="18" r="2"/>
    <circle class="accent" cx="35" cy="22" r="2"/>
  </g>
  
  <!-- Burger -->
  <g transform="translate(85, 85)">
    <ellipse class="food" cx="30" cy="15" rx="28" ry="12"/>
    <path class="food" d="M5,25 L55,25"/>
    <path class="food" d="M3,35 Q30,42 57,35"/>
    <ellipse class="food" cx="30" cy="50" rx="28" ry="10"/>
    <path class="accent" d="M10,30 Q30,38 50,30"/>
  </g>
  
  <!-- Taco -->
  <g transform="translate(160, 95)">
    <path class="food" d="M5,45 Q30,5 55,45"/>
    <path class="food" d="M10,35 Q30,15 50,35"/>
    <path class="accent" d="M15,30 L20,25 L25,32 L30,24 L35,30 L40,26 L45,33"/>
  </g>
  
  <!-- Milkshake -->
  <g transform="translate(230, 80)">
    <path class="food" d="M15,70 L20,25 L40,25 L45,70 Z"/>
    <ellipse class="food" cx="30" cy="25" rx="12" ry="5"/>
    <path class="food" d="M20,20 Q30,0 40,20"/>
    <circle class="food" cx="30" cy="10" r="8"/>
    <line class="food" x1="35" y1="5" x2="40" y2="-5"/>
  </g>
  
  <!-- Sandwich -->
  <g transform="translate(295, 90)">
    <path class="food" d="M5,40 L55,40 L50,20 L10,20 Z"/>
    <path class="food" d="M10,20 Q30,5 50,20"/>
    <path class="accent" d="M12,30 L48,30"/>
    <path class="food" d="M10,35 Q30,42 50,35"/>
  </g>
  
  <!-- Small Pizza -->
  <g transform="translate(360, 85) rotate(-10)">
    <circle class="food" cx="25" cy="25" r="22"/>
    <line class="food" x1="25" y1="5" x2="25" y2="45"/>
    <line class="food" x1="5" y1="25" x2="45" y2="25"/>
    <circle class="accent" cx="15" cy="15" r="3"/>
    <circle class="accent" cx="35" cy="35" r="3"/>
  </g>
  
  <!-- ROW 3 -->
  <!-- Donut -->
  <g transform="translate(15, 175)">
    <circle class="food" cx="30" cy="30" r="25"/>
    <circle class="food" cx="30" cy="30" r="10"/>
    <path class="accent" d="M12,20 Q30,10 48,20"/>
  </g>
  
  <!-- Coffee Cup -->
  <g transform="translate(80, 170)">
    <path class="food" d="M10,55 L15,15 L45,15 L50,55 Z"/>
    <path class="food" d="M50,25 Q65,25 60,40 Q55,50 50,45"/>
    <path class="accent" d="M20,10 Q25,0 30,10 Q35,0 40,10"/>
  </g>
  
  <!-- Chicken Leg -->
  <g transform="translate(150, 175)">
    <ellipse class="food" cx="25" cy="20" rx="20" ry="15"/>
    <path class="food" d="M40,30 L55,55 L50,58 L35,35"/>
  </g>
  
  <!-- Cupcake -->
  <g transform="translate(220, 170)">
    <path class="food" d="M15,65 L20,40 L40,40 L45,65 Z"/>
    <path class="food" d="M10,40 Q20,25 30,35 Q40,25 50,40"/>
    <circle class="accent" cx="30" cy="30" r="3"/>
  </g>
  
  <!-- Cheese -->
  <g transform="translate(285, 180)">
    <path class="food" d="M5,45 L30,5 L55,45 Z"/>
    <circle class="food" cx="20" cy="30" r="4"/>
    <circle class="food" cx="35" cy="35" r="3"/>
    <circle class="food" cx="28" cy="22" r="3"/>
  </g>
  
  <!-- Drink Glass -->
  <g transform="translate(350, 165)">
    <path class="food" d="M10,60 L15,10 L45,10 L50,60 Z"/>
    <line class="food" x1="30" y1="5" x2="30" y2="-15"/>
    <path class="food" d="M25,-15 L35,-15 L32,-10 L28,-10 Z"/>
    <path class="accent" d="M18,35 L42,35"/>
  </g>
  
  <!-- ROW 4 -->
  <!-- Pizza Slice 3 -->
  <g transform="translate(5, 260) rotate(-5)">
    <path class="food" d="M5,60 L30,5 L55,60 Q30,55 5,60"/>
    <circle class="food" cx="22" cy="38" r="5"/>
    <circle class="food" cx="35" cy="42" r="4"/>
    <circle class="food" cx="28" cy="26" r="4"/>
  </g>
  
  <!-- Fries 2 -->
  <g transform="translate(75, 255) rotate(10)">
    <path class="food" d="M8,50 L13,12 L18,50"/>
    <path class="food" d="M16,50 L23,8 L30,50"/>
    <path class="food" d="M28,50 L33,15 L38,50"/>
    <path class="food" d="M36,50 L40,10 L46,50"/>
    <path class="food" d="M3,50 Q23,45 48,50 L43,65 L8,65 Z"/>
  </g>
  
  <!-- Popcorn -->
  <g transform="translate(145, 250)">
    <path class="food" d="M15,65 L10,30 L50,30 L45,65 Z"/>
    <circle class="food" cx="20" cy="25" r="8"/>
    <circle class="food" cx="35" cy="22" r="9"/>
    <circle class="food" cx="28" cy="15" r="7"/>
    <circle class="food" cx="42" cy="28" r="6"/>
  </g>
  
  <!-- Hot Dog 2 -->
  <g transform="translate(215, 265) rotate(-8)">
    <ellipse class="food" cx="28" cy="22" rx="26" ry="10"/>
    <path class="food" d="M5,18 Q28,8 52,18"/>
    <path class="accent" d="M8,22 Q18,18 28,22 Q38,26 48,22"/>
  </g>
  
  <!-- Soda Can -->
  <g transform="translate(295, 255)">
    <rect class="food" x="10" y="10" width="35" height="55" rx="5"/>
    <ellipse class="food" cx="27" cy="12" rx="15" ry="5"/>
    <path class="accent" d="M15,35 L40,35"/>
  </g>
  
  <!-- Pretzel 2 -->
  <g transform="translate(355, 260) rotate(15)">
    <path class="food" d="M25,40 Q8,32 12,18 Q16,5 25,12 Q34,5 38,18 Q42,32 25,40"/>
    <path class="food" d="M18,22 Q25,26 32,22"/>
  </g>
  
  <!-- ROW 5 -->
  <!-- Wrap/Burrito -->
  <g transform="translate(25, 340)">
    <ellipse class="food" cx="30" cy="25" rx="25" ry="18"/>
    <path class="food" d="M8,20 Q30,5 52,20"/>
    <path class="accent" d="M15,28 L20,22 L28,30 L35,23 L42,28"/>
  </g>
  
  <!-- Cookie -->
  <g transform="translate(95, 345)">
    <circle class="food" cx="25" cy="25" r="22"/>
    <circle class="accent" cx="18" cy="18" r="3"/>
    <circle class="accent" cx="32" cy="22" r="3"/>
    <circle class="accent" cx="22" cy="32" r="3"/>
    <circle class="accent" cx="35" cy="35" r="2"/>
  </g>
  
  <!-- Pizza Slice 4 -->
  <g transform="translate(155, 335) rotate(8)">
    <path class="food" d="M5,55 L28,5 L52,55 Q28,50 5,55"/>
    <circle class="food" cx="20" cy="35" r="4"/>
    <circle class="food" cx="34" cy="38" r="5"/>
    <circle class="food" cx="27" cy="22" r="3"/>
  </g>
  
  <!-- Onion Ring -->
  <g transform="translate(225, 350)">
    <ellipse class="food" cx="25" cy="20" rx="22" ry="15"/>
    <ellipse class="food" cx="25" cy="20" rx="12" ry="8"/>
  </g>
  
  <!-- Tomato -->
  <g transform="translate(290, 345)">
    <circle class="food" cx="25" cy="28" r="22"/>
    <path class="food" d="M15,10 Q25,0 35,10"/>
    <line class="food" x1="25" y1="10" x2="25" y2="20"/>
  </g>
  
  <!-- Ice Pop -->
  <g transform="translate(355, 340)">
    <rect class="food" x="12" y="5" width="26" height="40" rx="8"/>
    <line class="food" x1="25" y1="45" x2="25" y2="60"/>
    <path class="accent" d="M18,20 L32,20"/>
  </g>
  
  <!-- Scattered accent elements -->
  <path class="accent" d="M70,70 Q75,65 80,70" transform="rotate(45, 75, 67)"/>
  <path class="accent" d="M180,145 Q185,140 190,145"/>
  <path class="accent" d="M320,130 Q325,125 330,130" transform="rotate(-30, 325, 127)"/>
  <path class="accent" d="M250,210 Q255,205 260,210"/>
  <path class="accent" d="M120,310 Q125,305 130,310"/>
  <path class="accent" d="M380,210 Q385,205 390,210" transform="rotate(20, 385, 207)"/>
</svg>
